<?xml version="1.0" encoding="UTF-8"?>
<svg width="400" height="400" viewBox="0 0 200 200" xmlns="http://www.w3.org/2000/svg"> 
     <rect x="0" y="0" width="200" height="200" fill="#FFC501"/> 
     <line x1="40" y1="40" x2="40" y2="60" stroke="#000000" stroke-width="5" stroke-linecap="round"/>
     <line x1="40" y1="40" x2="60" y2="40" stroke="#000000" stroke-width="5" stroke-linecap="round"/>
     <line x1="140" y1="40" x2="160" y2="40" stroke="#000000" stroke-width="5" stroke-linecap="round"/>
     <line x1="160" y1="40" x2="160" y2="60" stroke="#000000" stroke-width="5" stroke-linecap="round"/>
     <line x1="140" y1="160" x2="160" y2="160" stroke="#000000" stroke-width="5" stroke-linecap="round"/>
     <line x1="160" y1="140" x2="160" y2="160" stroke="#000000" stroke-width="5" stroke-linecap="round"/>
     <line x1="40" y1="160" x2="60" y2="160" stroke="#000000" stroke-width="5" stroke-linecap="round"/>
     <line x1="40" y1="140" x2="40" y2="160" stroke="#000000" stroke-width="5" stroke-linecap="round"/>
     <g transform="translate(30 30)">
     <g transform="scale(.6)">
     <g transform="rotate(-45, 100, 100)"> 
         <rect x="15" y="80" width="170" height="40" fill="#FFFFFF" stroke="#000000" stroke-width="5"/> 
         <line x1="25" y1="80" x2="25" y2="110" stroke="#000000" stroke-width="5"/> 
         <line x1="35" y1="80" x2="35" y2="95" stroke="#000000" stroke-width="5"/> 
         <line x1="45" y1="80" x2="45" y2="95" stroke="#000000" stroke-width="5"/> 
         <line x1="55" y1="80" x2="55" y2="95" stroke="#000000" stroke-width="5"/> 
         <line x1="65" y1="80" x2="65" y2="95" stroke="#000000" stroke-width="5"/> 
         <line x1="75" y1="80" x2="75" y2="110" stroke="#000000" stroke-width="5"/> 
         <line x1="85" y1="80" x2="85" y2="95" stroke="#000000" stroke-width="5"/> 
         <line x1="95" y1="80" x2="95" y2="95" stroke="#000000" stroke-width="5"/> 
         <line x1="105" y1="80" x2="105" y2="95" stroke="#000000" stroke-width="5"/> 
         <line x1="115" y1="80" x2="115" y2="95" stroke="#000000" stroke-width="5"/> 
         <line x1="125" y1="80" x2="125" y2="110" stroke="#000000" stroke-width="5"/> 
         <line x1="135" y1="80" x2="135" y2="95" stroke="#000000" stroke-width="5"/> 
         <line x1="145" y1="80" x2="145" y2="95" stroke="#000000" stroke-width="5"/> 
         <line x1="155" y1="80" x2="155" y2="95" stroke="#000000" stroke-width="5"/> 
         <line x1="165" y1="80" x2="165" y2="95" stroke="#000000" stroke-width="5"/> 
         <line x1="175" y1="80" x2="175" y2="110" stroke="#000000" stroke-width="5"/> 
     </g> 
     </g>
     </g>    
     <g transform="scale(2)">
     <text x="50" y="65">3D</text>
     </g>
 </svg>
