<svg xmlns="http://www.w3.org/2000/svg" xml:space="preserve" xmlns:xlink="http://www.w3.org/1999/xlink" style="max-width: 100%;height: auto;" width="400" height="400" viewBox="-100 -100 1000 1000">
<defs><mask id="qrmask"><g fill="#ffffff"><g>
<g transform="translate(320,64) scale(5.4933333333333)"><rect width="6" height="6"/></g>
<g transform="translate(416,64) scale(5.4933333333333)"><rect width="6" height="6"/></g>
<g transform="translate(448,64) scale(5.4933333333333)"><rect width="6" height="6"/></g>
<g transform="translate(320,96) scale(5.4933333333333)"><rect width="6" height="6"/></g>
<g transform="translate(352,96) scale(5.4933333333333)"><rect width="6" height="6"/></g>
<g transform="translate(320,128) scale(5.4933333333333)"><rect width="6" height="6"/></g>
<g transform="translate(448,128) scale(5.4933333333333)"><rect width="6" height="6"/></g>
<g transform="translate(352,160) scale(5.4933333333333)"><rect width="6" height="6"/></g>
<g transform="translate(384,160) scale(5.4933333333333)"><rect width="6" height="6"/></g>
<g transform="translate(352,192) scale(5.4933333333333)"><rect width="6" height="6"/></g>
<g transform="translate(416,192) scale(5.4933333333333)"><rect width="6" height="6"/></g>
<g transform="translate(320,224) scale(5.4933333333333)"><rect width="6" height="6"/></g>
<g transform="translate(448,224) scale(5.4933333333333)"><rect width="6" height="6"/></g>
<g transform="translate(320,256) scale(5.4933333333333)"><rect width="6" height="6"/></g>
<g transform="translate(384,256) scale(5.4933333333333)"><rect width="6" height="6"/></g>
<g transform="translate(448,256) scale(5.4933333333333)"><rect width="6" height="6"/></g>
<g transform="translate(320,288) scale(5.4933333333333)"><rect width="6" height="6"/></g>
<g transform="translate(352,288) scale(5.4933333333333)"><rect width="6" height="6"/></g>
<g transform="translate(384,288) scale(5.4933333333333)"><rect width="6" height="6"/></g>
<g transform="translate(128,320) scale(5.4933333333333)"><rect width="6" height="6"/></g>
<g transform="translate(160,320) scale(5.4933333333333)"><rect width="6" height="6"/></g>
<g transform="translate(192,320) scale(5.4933333333333)"><rect width="6" height="6"/></g>
<g transform="translate(256,320) scale(5.4933333333333)"><rect width="6" height="6"/></g>
<g transform="translate(320,320) scale(5.4933333333333)"><rect width="6" height="6"/></g>
<g transform="translate(352,320) scale(5.4933333333333)"><rect width="6" height="6"/></g>
<g transform="translate(448,320) scale(5.4933333333333)"><rect width="6" height="6"/></g>
<g transform="translate(480,320) scale(5.4933333333333)"><rect width="6" height="6"/></g>
<g transform="translate(512,320) scale(5.4933333333333)"><rect width="6" height="6"/></g>
<g transform="translate(544,320) scale(5.4933333333333)"><rect width="6" height="6"/></g>
<g transform="translate(640,320) scale(5.4933333333333)"><rect width="6" height="6"/></g>
<g transform="translate(672,320) scale(5.4933333333333)"><rect width="6" height="6"/></g>
<g transform="translate(704,320) scale(5.4933333333333)"><rect width="6" height="6"/></g>
<g transform="translate(64,352) scale(5.4933333333333)"><rect width="6" height="6"/></g>
<g transform="translate(128,352) scale(5.4933333333333)"><rect width="6" height="6"/></g>
<g transform="translate(160,352) scale(5.4933333333333)"><rect width="6" height="6"/></g>
<g transform="translate(288,352) scale(5.4933333333333)"><rect width="6" height="6"/></g>
<g transform="translate(352,352) scale(5.4933333333333)"><rect width="6" height="6"/></g>
<g transform="translate(384,352) scale(5.4933333333333)"><rect width="6" height="6"/></g>
<g transform="translate(416,352) scale(5.4933333333333)"><rect width="6" height="6"/></g>
<g transform="translate(544,352) scale(5.4933333333333)"><rect width="6" height="6"/></g>
<g transform="translate(640,352) scale(5.4933333333333)"><rect width="6" height="6"/></g>
<g transform="translate(672,352) scale(5.4933333333333)"><rect width="6" height="6"/></g>
<g transform="translate(192,384) scale(5.4933333333333)"><rect width="6" height="6"/></g>
<g transform="translate(256,384) scale(5.4933333333333)"><rect width="6" height="6"/></g>
<g transform="translate(288,384) scale(5.4933333333333)"><rect width="6" height="6"/></g>
<g transform="translate(384,384) scale(5.4933333333333)"><rect width="6" height="6"/></g>
<g transform="translate(448,384) scale(5.4933333333333)"><rect width="6" height="6"/></g>
<g transform="translate(480,384) scale(5.4933333333333)"><rect width="6" height="6"/></g>
<g transform="translate(544,384) scale(5.4933333333333)"><rect width="6" height="6"/></g>
<g transform="translate(672,384) scale(5.4933333333333)"><rect width="6" height="6"/></g>
<g transform="translate(96,416) scale(5.4933333333333)"><rect width="6" height="6"/></g>
<g transform="translate(192,416) scale(5.4933333333333)"><rect width="6" height="6"/></g>
<g transform="translate(224,416) scale(5.4933333333333)"><rect width="6" height="6"/></g>
<g transform="translate(320,416) scale(5.4933333333333)"><rect width="6" height="6"/></g>
<g transform="translate(384,416) scale(5.4933333333333)"><rect width="6" height="6"/></g>
<g transform="translate(416,416) scale(5.4933333333333)"><rect width="6" height="6"/></g>
<g transform="translate(480,416) scale(5.4933333333333)"><rect width="6" height="6"/></g>
<g transform="translate(640,416) scale(5.4933333333333)"><rect width="6" height="6"/></g>
<g transform="translate(672,416) scale(5.4933333333333)"><rect width="6" height="6"/></g>
<g transform="translate(64,448) scale(5.4933333333333)"><rect width="6" height="6"/></g>
<g transform="translate(128,448) scale(5.4933333333333)"><rect width="6" height="6"/></g>
<g transform="translate(160,448) scale(5.4933333333333)"><rect width="6" height="6"/></g>
<g transform="translate(256,448) scale(5.4933333333333)"><rect width="6" height="6"/></g>
<g transform="translate(320,448) scale(5.4933333333333)"><rect width="6" height="6"/></g>
<g transform="translate(352,448) scale(5.4933333333333)"><rect width="6" height="6"/></g>
<g transform="translate(384,448) scale(5.4933333333333)"><rect width="6" height="6"/></g>
<g transform="translate(480,448) scale(5.4933333333333)"><rect width="6" height="6"/></g>
<g transform="translate(512,448) scale(5.4933333333333)"><rect width="6" height="6"/></g>
<g transform="translate(320,480) scale(5.4933333333333)"><rect width="6" height="6"/></g>
<g transform="translate(384,480) scale(5.4933333333333)"><rect width="6" height="6"/></g>
<g transform="translate(448,480) scale(5.4933333333333)"><rect width="6" height="6"/></g>
<g transform="translate(480,480) scale(5.4933333333333)"><rect width="6" height="6"/></g>
<g transform="translate(544,480) scale(5.4933333333333)"><rect width="6" height="6"/></g>
<g transform="translate(576,480) scale(5.4933333333333)"><rect width="6" height="6"/></g>
<g transform="translate(608,480) scale(5.4933333333333)"><rect width="6" height="6"/></g>
<g transform="translate(672,480) scale(5.4933333333333)"><rect width="6" height="6"/></g>
<g transform="translate(448,512) scale(5.4933333333333)"><rect width="6" height="6"/></g>
<g transform="translate(480,512) scale(5.4933333333333)"><rect width="6" height="6"/></g>
<g transform="translate(608,512) scale(5.4933333333333)"><rect width="6" height="6"/></g>
<g transform="translate(640,512) scale(5.4933333333333)"><rect width="6" height="6"/></g>
<g transform="translate(672,512) scale(5.4933333333333)"><rect width="6" height="6"/></g>
<g transform="translate(448,544) scale(5.4933333333333)"><rect width="6" height="6"/></g>
<g transform="translate(480,544) scale(5.4933333333333)"><rect width="6" height="6"/></g>
<g transform="translate(512,544) scale(5.4933333333333)"><rect width="6" height="6"/></g>
<g transform="translate(544,544) scale(5.4933333333333)"><rect width="6" height="6"/></g>
<g transform="translate(608,544) scale(5.4933333333333)"><rect width="6" height="6"/></g>
<g transform="translate(640,544) scale(5.4933333333333)"><rect width="6" height="6"/></g>
<g transform="translate(672,544) scale(5.4933333333333)"><rect width="6" height="6"/></g>
<g transform="translate(704,544) scale(5.4933333333333)"><rect width="6" height="6"/></g>
<g transform="translate(320,576) scale(5.4933333333333)"><rect width="6" height="6"/></g>
<g transform="translate(352,576) scale(5.4933333333333)"><rect width="6" height="6"/></g>
<g transform="translate(384,576) scale(5.4933333333333)"><rect width="6" height="6"/></g>
<g transform="translate(448,576) scale(5.4933333333333)"><rect width="6" height="6"/></g>
<g transform="translate(512,576) scale(5.4933333333333)"><rect width="6" height="6"/></g>
<g transform="translate(640,576) scale(5.4933333333333)"><rect width="6" height="6"/></g>
<g transform="translate(672,576) scale(5.4933333333333)"><rect width="6" height="6"/></g>
<g transform="translate(320,608) scale(5.4933333333333)"><rect width="6" height="6"/></g>
<g transform="translate(384,608) scale(5.4933333333333)"><rect width="6" height="6"/></g>
<g transform="translate(416,608) scale(5.4933333333333)"><rect width="6" height="6"/></g>
<g transform="translate(448,608) scale(5.4933333333333)"><rect width="6" height="6"/></g>
<g transform="translate(480,608) scale(5.4933333333333)"><rect width="6" height="6"/></g>
<g transform="translate(512,608) scale(5.4933333333333)"><rect width="6" height="6"/></g>
<g transform="translate(544,608) scale(5.4933333333333)"><rect width="6" height="6"/></g>
<g transform="translate(576,608) scale(5.4933333333333)"><rect width="6" height="6"/></g>
<g transform="translate(640,608) scale(5.4933333333333)"><rect width="6" height="6"/></g>
<g transform="translate(320,640) scale(5.4933333333333)"><rect width="6" height="6"/></g>
<g transform="translate(352,640) scale(5.4933333333333)"><rect width="6" height="6"/></g>
<g transform="translate(608,640) scale(5.4933333333333)"><rect width="6" height="6"/></g>
<g transform="translate(480,672) scale(5.4933333333333)"><rect width="6" height="6"/></g>
<g transform="translate(576,672) scale(5.4933333333333)"><rect width="6" height="6"/></g>
<g transform="translate(608,672) scale(5.4933333333333)"><rect width="6" height="6"/></g>
<g transform="translate(640,672) scale(5.4933333333333)"><rect width="6" height="6"/></g>
<g transform="translate(512,704) scale(5.4933333333333)"><rect width="6" height="6"/></g>
<g transform="translate(576,704) scale(5.4933333333333)"><rect width="6" height="6"/></g>
<g transform="translate(672,704) scale(5.4933333333333)"><rect width="6" height="6"/></g>
</g></g></mask></defs>
<rect width="1200" height="1200" fill="#FFC107" x="-100" y="-100"/>
<rect width="750" height="750" fill="#ffffff" x="25" y="25" />
<rect x="0" y="0" width="800" height="800" mask="url(#qrmask)" fill="#000000" />
<g><g transform="translate(64,64)"  fill="#000000"><g transform="scale(16)"><path d="M0,0v14h14V0H0z M12,12H2V2h10V12z"/></g></g>
<g transform="translate(128,128)"  fill="#000000"><g transform="scale(16)"><rect width="6" height="6"/></g></g>
<g transform="translate(512,64)"  fill="#000000"><g transform="scale(16)"><path d="M0,0v14h14V0H0z M12,12H2V2h10V12z"/></g></g>
<g transform="translate(576,128)"  fill="#000000"><g transform="scale(16)"><rect width="6" height="6"/></g></g>
<g transform="translate(64,512)"  fill="#000000"><g transform="scale(16)"><path d="M0,0v14h14V0H0z M12,12H2V2h10V12z"/></g></g>
<g transform="translate(128,576)"  fill="#000000"><g transform="scale(16)"><rect width="6" height="6"/></g></g></g>
</svg>