<svg xmlns="http://www.w3.org/2000/svg" xmlns:xlink="http://www.w3.org/1999/xlink" version="1.1" x="0px" y="0px" viewBox="-25 -25 150 150" style="enable-background:new 0 0 100 100;" xml:space="preserve">
    <rect x="-25" y="-25" width="150" height="150" fill="transparent"/>
    <path 
        d="M90.75,25.12c-3.55,0-6.44,2.89-6.44,6.44v0.69h-3.47v-7.76c3.35-2.49,5.34-6.41,5.34-10.6c0-5.26-3.12-10.02-7.94-12.11  
        c-0.36-0.16-0.77-0.12-1.09,0.09c-0.33,0.21-0.52,0.58-0.52,0.97v10.08l-3.65,2.19l-3.65-2.19V2.83c0-0.39-0.2-0.75-0.52-0.97  
        c-0.33-0.21-0.74-0.25-1.09-0.09c-4.83,2.1-7.94,6.85-7.94,12.11c0,4.2,1.98,8.12,5.34,10.6v7.76h-6.43v-5.78  
        c0-4.48-3.65-8.13-8.13-8.13s-8.13,3.65-8.13,8.13v5.78H27.34v-5.15h1.21c0.64,0,1.16-0.52,1.16-1.16v-5.1  
        c0-1.43,1.16-2.59,2.59-2.59c1.43,0,2.59,1.16,2.59,2.59c0,0.64,0.52,1.16,1.16,1.16h5.43c0.64,0,1.16-0.52,1.16-1.16V3.79  
        c0-0.64-0.52-1.16-1.16-1.16h-5.43c-0.64,0-1.16,0.52-1.16,1.16c0,1.43-1.16,2.59-2.59,2.59c-1.43,0-2.59-1.16-2.59-2.59  
        c0-0.64-0.52-1.16-1.16-1.16H18.39c-0.01,0-0.02,0-0.03,0c-3.74,0.09-6.68,1.32-8.73,3.65c-3.35,3.8-3.54,9.68-3.1,13.95  
        c0.05,0.5,0.42,0.91,0.91,1.01c0.49,0.1,1-0.13,1.24-0.56c1.85-3.3,3.62-5.13,5.4-5.6c0.98-0.26,2.02-0.11,3.15,0.46v10.4  
        c0,0.64,0.52,1.16,1.16,1.16h1.21v5.15h-3.91v-0.69c0-3.55-2.89-6.44-6.44-6.44S2.82,28,2.82,31.55v31.92v26.17  
        c0,4.78,3.89,8.68,8.68,8.68h77.01c4.78,0,8.68-3.89,8.68-8.68V63.47V31.55C97.19,28,94.3,25.12,90.75,25.12z M90.75,27.43  
        c2.27,0,4.13,1.85,4.13,4.13v30.76h-8.25V31.55C86.62,29.28,88.47,27.43,90.75,27.43z M80.84,41.57h3.47v20.74h-3.47V41.57z   
        M84.31,34.56v4.7h-3.47v-4.7H84.31z M62.08,13.89c0-3.72,1.89-7.14,4.94-9.13v8.81c0,0.41,0.21,0.78,0.56,0.99l4.8,2.89  
        c0.37,0.22,0.82,0.22,1.19,0l4.8-2.89c0.35-0.21,0.56-0.58,0.56-0.99V4.76c3.05,1.99,4.94,5.4,4.94,9.13c0,3.63-1.8,7.02-4.83,9.05  
        c-0.32,0.21-0.51,0.57-0.51,0.96v38.42H67.41V23.89c0-0.38-0.19-0.74-0.51-0.96C63.88,20.9,62.08,17.52,62.08,13.89z M19.6,46.28  
        h-0.36c-0.64,0-1.16,0.52-1.16,1.16v14.88h-2.39V41.57h3.91V46.28z M20.39,48.59h6.16v13.72h-6.16V48.59z M27.7,46.28h-0.36v-4.71  
        h15.07v4c0,2.28,0.94,4.34,2.46,5.82h-1.3c-0.64,0-1.16,0.52-1.16,1.16v6.12c0,0.64,0.52,1.16,1.16,1.16h3.72v2.5H28.86V47.44  
        C28.86,46.8,28.34,46.28,27.7,46.28z M44.73,57.51V53.7h11.63v3.81H44.73z M49.6,59.82h1.88v2.5H49.6V59.82z M53.79,59.82h3.72  
        c0.64,0,1.16-0.52,1.16-1.16v-6.12c0-0.64-0.52-1.16-1.16-1.16h-1.3c1.52-1.48,2.46-3.54,2.46-5.82v-4h6.43v20.74H53.79V59.82z   
        M65.1,34.56v4.7h-6.43v-4.7H65.1z M44.73,26.46c0-3.21,2.61-5.82,5.82-5.82s5.82,2.61,5.82,5.82v19.11c0,3.21-2.61,5.82-5.82,5.82  
        s-5.82-2.61-5.82-5.82V26.46z M42.42,34.56v4.7H27.34v-4.7H42.42z M18.99,13.88c-1.89-1.14-3.73-1.49-5.49-1.03  
        c-1.71,0.45-3.28,1.62-4.83,3.62c0.06-3.09,0.69-6.39,2.69-8.66c1.61-1.82,3.97-2.79,7.04-2.86h9.13c0.52,2.14,2.46,3.74,4.76,3.74  
        c2.3,0,4.24-1.6,4.76-3.74h3.25v14.74h-3.25c-0.52-2.14-2.46-3.74-4.76-3.74c-2.7,0-4.9,2.2-4.9,4.9v3.94h-7.85v-9.92  
        C19.54,14.46,19.33,14.09,18.99,13.88z M25.03,27.09v19.19h-3.12V27.09H25.03z M19.6,34.56v4.7h-3.91v-4.7H19.6z M9.26,27.43  
        c2.27,0,4.13,1.85,4.13,4.13v30.76H5.13V31.55C5.13,29.28,6.98,27.43,9.26,27.43z M94.88,89.64c0,3.51-2.86,6.37-6.37,6.37H11.5  
        c-3.51,0-6.37-2.86-6.37-6.37V64.62h89.75V89.64z M46.94,46.93V25.11c0-0.64,0.52-1.16,1.16-1.16c0.64,0,1.16,0.52,1.16,1.16v21.82  
        c0,0.64-0.52,1.16-1.16,1.16C47.46,48.08,46.94,47.57,46.94,46.93z M51.83,46.93V25.11c0-0.64,0.52-1.16,1.16-1.16  
        c0.64,0,1.16,0.52,1.16,1.16v21.82c0,0.64-0.52,1.16-1.16,1.16C52.35,48.08,51.83,47.57,51.83,46.93z M40.1,83.3h19.81  
        c2.98,0,5.41-2.43,5.41-5.41s-2.43-5.41-5.41-5.41H40.1c-2.98,0-5.41,2.43-5.41,5.41S37.11,83.3,40.1,83.3z M40.1,74.79h19.81  
        c1.71,0,3.1,1.39,3.1,3.1s-1.39,3.1-3.1,3.1H40.1c-1.71,0-3.1-1.39-3.1-3.1S38.39,74.79,40.1,74.79z M69.61,31.65  
        c0-0.64,0.52-1.16,1.16-1.16h4.41c0.64,0,1.16,0.52,1.16,1.16s-0.52,1.16-1.16,1.16h-4.41C70.13,32.8,69.61,32.29,69.61,31.65z   
        M69.61,37.6c0-0.64,0.52-1.16,1.16-1.16h4.41c0.64,0,1.16,0.52,1.16,1.16c0,0.64-0.52,1.16-1.16,1.16h-4.41  
        C70.13,38.76,69.61,38.24,69.61,37.6z M69.61,43.56c0-0.64,0.52-1.16,1.16-1.16h4.41c0.64,0,1.16,0.52,1.16,1.16  
        c0,0.64-0.52,1.16-1.16,1.16h-4.41C70.13,44.71,69.61,44.2,69.61,43.56z M69.61,49.51c0-0.64,0.52-1.16,1.16-1.16h4.41  
        c0.64,0,1.16,0.52,1.16,1.16c0,0.64-0.52,1.16-1.16,1.16h-4.41C70.13,50.67,69.61,50.15,69.61,49.51z M69.61,55.47  
        c0-0.64,0.52-1.16,1.16-1.16h4.41c0.64,0,1.16,0.52,1.16,1.16c0,0.64-0.52,1.16-1.16,1.16h-4.41  
        C70.13,56.62,69.61,56.11,69.61,55.47z" fill="black"/>
</svg>