<svg width="400" height="120" viewBox="0 80 400 120" xmlns="http://www.w3.org/2000/svg">   
     <path 
         d=" 
         M 60.5 189.5 
         L 139.5 189.5
         L 139.5 170.5
         L 60.5 170.5
         L 60.5 189.5
         " 
         fill="blue"
         stroke="transparent"
         stroke-width="1"
     /> 
     <path 
         d=" 
         M 30.5 169.5 
         L 69.5 169.5
         L 69.5 150.5
         L 30.5 150.5
         L 30.5 169.5
         " 
         fill="blue"
         stroke="transparent"
         stroke-width="1"
     />
     <path 
         d=" 
         M 130.5 169.5 
         L 170.5 169.5
         L 170.5 150.5
         L 130.5 150.5
         L 130.5 169.5
         " 
         fill="blue"
         stroke="transparent"
         stroke-width="1"
     /> 
     <path 
         d=" 
         M 15.5 149.5 
         L 54.5 149.5
         L 54.5 130.5
         L 15.5 130.5
         L 15.5 149.5
         " 
         fill="blue"
         stroke="transparent"
         stroke-width="1"
     />
     <path 
         d=" 
         M 145.5 149.5 
         L 184.5 149.5
         L 184.5 130.5
         L 145.5 130.5
         L 145.5 149.5
         " 
         fill="blue"
         stroke="transparent"
         stroke-width="1"
     /> 

    <g transform="rotate(-110, 16.5, 128.5)"> 
        <line x1="16.5" y1="128.5" x2="53.5" y2="128.5" stroke="blue" stroke-width="2" stroke-linecap="round"/>
    </g>
    <g transform="rotate(110, 183.5, 128.5)"> 
        <line x1="146.5" y1="128.5" x2="183.5" y2="128.5" stroke="blue" stroke-width="2" stroke-linecap="round"/>
        <line x1="146.5" y1="128.5" x2="146.5" y2="126" stroke="blue" stroke-width="2" stroke-linecap="round"/>
        <line x1="146.5" y1="126" x2="143.5" y2="126" stroke="blue" stroke-width="2" stroke-linecap="round"/>
    </g>

    <line x1="65" y1="180" x2="35" y2="135" stroke="grey" stroke-width="4" stroke-linecap="round"/>
    <line x1="135" y1="180" x2="165" y2="135" stroke="grey" stroke-width="4" stroke-linecap="round"/>
    <line x1="65" y1="180" x2="35" y2="135" stroke="blue" stroke-width="3" stroke-linecap="round"/>
    <line x1="135" y1="180" x2="165" y2="135" stroke="blue" stroke-width="3" stroke-linecap="round"/>
    
    <line x1="35" y1="157.5" x2="20" y2="135" stroke="grey" stroke-width="4" stroke-linecap="round"/>
    <line x1="35" y1="157.5" x2="20" y2="135" stroke="blue" stroke-width="3" stroke-linecap="round"/>
    <line x1="165" y1="157.5" x2="180" y2="135" stroke="grey" stroke-width="4" stroke-linecap="round"/>
    <line x1="165" y1="157.5" x2="180" y2="135" stroke="blue" stroke-width="3" stroke-linecap="round"/>
    
    <line x1="80" y1="180" x2="65" y2="157.5" stroke="grey" stroke-width="4" stroke-linecap="round"/>
    <line x1="80" y1="180" x2="65" y2="157.5" stroke="blue" stroke-width="3" stroke-linecap="round"/>
    <line x1="120" y1="180" x2="135" y2="157.5" stroke="grey" stroke-width="4" stroke-linecap="round"/>
    <line x1="120" y1="180" x2="135" y2="157.5" stroke="blue" stroke-width="3" stroke-linecap="round"/>
</svg>
