<svg width="400" height="120" viewBox="0 80 400 120" xmlns="http://www.w3.org/2000/svg">   
     <path 
         d=" 
         M 60.5 189.5 
         L 139.5 189.5
         L 139.5 170.5
         L 60.5 170.5
         L 60.5 189.5
         " 
         fill="blue"
         stroke="transparent"
         stroke-width="1"
     /> 

    <g transform="translate(-6, -3)">
     <path 
         d=" 
         M 60.5 169.5 
         L 99.5 169.5
         L 99.5 150.5
         L 60.5 150.5
         L 60.5 169.5
         " 
         fill="blue"
         stroke="transparent"
         stroke-width="1"
     />
    </g>

    <g transform="translate(6, -3)">
     <path 
         d=" 
         M 100.5 169.5 
         L 139.5 169.5
         L 139.5 150.5
         L 100.5 150.5
         L 100.5 169.5
         " 
         fill="blue"
         stroke="transparent"
         stroke-width="1"
     />
    </g>

    <g transform="translate(-12, -6)">
     <path 
         d=" 
         M 60.5 149.5 
         L 99.5 149.5
         L 99.5 130.5
         L 60.5 130.5
         L 60.5 149.5
         " 
         fill="blue"
         stroke="transparent"
         stroke-width="1"
     />
    </g>

    <g transform="translate(12, -6)">
     <path 
         d=" 
         M 100.5 149.5 
         L 139.5 149.5
         L 139.5 130.5
         L 100.5 130.5
         L 100.5 149.5
         " 
         fill="blue"
         stroke="transparent"
         stroke-width="1"
     /> 
    </g>

    <g transform="translate(-12, -6)">
    <g transform="rotate(-15, 61.5, 128.5)">
        <line x1="61.5" y1="128.5" x2="98.5" y2="128.5" stroke="blue" stroke-width="2" stroke-linecap="round"/>
    </g>
    </g>

    <g transform="translate(12, -6)">
    <g transform="rotate(15, 138.5, 128.5)">
        <line x1="101.5" y1="128.5" x2="138.5" y2="128.5" stroke="blue" stroke-width="2" stroke-linecap="round"/>
        <line x1="101.5" y1="128.5" x2="101.5" y2="126" stroke="blue" stroke-width="2" stroke-linecap="round"/>
        <line x1="101.5" y1="126" x2="98.5" y2="126" stroke="blue" stroke-width="2" stroke-linecap="round"/>
    </g>
    </g>

    <g transform="rotate(-15, 65, 180)">
        <line x1="65" y1="180" x2="95" y2="135" stroke="grey" stroke-width="4" stroke-linecap="round"/>
        <line x1="65" y1="180" x2="95" y2="135" stroke="blue" stroke-width="3" stroke-linecap="round"/>
    </g>

    <g transform="rotate(15, 135, 180)">
        <line x1="135" y1="180" x2="105" y2="135" stroke="grey" stroke-width="4" stroke-linecap="round"/>
        <line x1="135" y1="180" x2="105" y2="135" stroke="blue" stroke-width="3" stroke-linecap="round"/>
    </g>

    <g transform="translate(-6, -3)">
    <g transform="rotate(-15, 65, 157.5)">
        <line x1="65" y1="157.5" x2="80" y2="135" stroke="grey" stroke-width="4" stroke-linecap="round"/>
        <line x1="65" y1="157.5" x2="80" y2="135" stroke="blue" stroke-width="3" stroke-linecap="round"/>
    </g>
    </g>

    <g transform="translate(6, -3)">
    <g transform="rotate(15, 135, 157.5)">
        <line x1="135" y1="157.5" x2="120" y2="135" stroke="grey" stroke-width="4" stroke-linecap="round"/>
        <line x1="135" y1="157.5" x2="120" y2="135" stroke="blue" stroke-width="3" stroke-linecap="round"/>
    </g>
    </g>

    <g transform="rotate(-15, 80, 180)">
        <line x1="80" y1="180" x2="95" y2="157.5" stroke="grey" stroke-width="4" stroke-linecap="round"/>
        <line x1="80" y1="180" x2="95" y2="157.5" stroke="blue" stroke-width="3" stroke-linecap="round"/>
    </g>

    <g transform="rotate(15, 120, 180)">
        <line x1="120" y1="180" x2="105" y2="157.5" stroke="grey" stroke-width="4" stroke-linecap="round"/>
        <line x1="120" y1="180" x2="105" y2="157.5" stroke="blue" stroke-width="3" stroke-linecap="round"/>
    </g>
  </svg>
